<svg width="42" height="42" viewBox="0 0 42 42" fill="none" xmlns="http://www.w3.org/2000/svg">
<circle cx="21" cy="21" r="20.5" fill="white" stroke="white"/>
<mask id="mask0_317_485" style="mask-type:alpha" maskUnits="userSpaceOnUse" x="9" y="9" width="24" height="24">
<rect x="9" y="9" width="24" height="24" fill="#D9D9D9"/>
</mask>
<g mask="url(#mask0_317_485)">
<path d="M21 25L16 20L17.4 18.55L20 21.15V13H22V21.15L24.6 18.55L26 20L21 25ZM15 29C14.45 29 13.9792 28.8042 13.5875 28.4125C13.1958 28.0208 13 27.55 13 27V24H15V27H27V24H29V27C29 27.55 28.8042 28.0208 28.4125 28.4125C28.0208 28.8042 27.55 29 27 29H15Z" fill="black"/>
</g>
</svg>
