<svg width="149" height="149" viewBox="0 0 149 149" fill="none" xmlns="http://www.w3.org/2000/svg">
<circle cx="74.5" cy="74.5" r="74.5" fill="url(#paint0_linear_1858_4564)"/>
<path d="M80.5264 76.1709C79.458 78.7097 77.8969 80.7597 76.7379 81.1579C74.337 81.974 65.2107 81.5561 63.48 77.3891C61.4498 72.4967 62.1002 66.8711 63.5825 65.9289C64.1384 65.5741 65.802 65.377 67.923 65.377C70.9861 65.377 75.0033 65.7909 78.0309 66.7331C80.7196 67.5689 81.2794 68.4204 81.3858 68.6609C82.1072 70.2772 81.7722 73.23 80.5264 76.1749V76.1709Z" fill="#EFF2FB"/>
<path d="M65.4323 79.3836C63.402 74.4951 64.0525 68.8656 65.5308 67.9234C66.0906 67.5686 67.7503 67.3714 69.8752 67.3714C72.9383 67.3714 76.9555 67.7854 79.9832 68.7276C80.6494 68.9365 81.1895 69.1455 81.6192 69.3426C81.5601 69.0903 81.4891 68.8537 81.3905 68.6409C81.2841 68.4004 80.7243 67.5488 78.0357 66.7131C75.008 65.7669 70.9909 65.3569 67.9277 65.3569C65.8068 65.3569 64.1471 65.554 63.5873 65.9089C62.105 66.8511 61.4584 72.4767 63.4848 77.3691C63.8632 78.2797 64.6044 79.0012 65.5348 79.5807C65.5032 79.5137 65.4559 79.4506 65.4283 79.3836H65.4323Z" fill="#E4EBF7"/>
<path d="M89.6764 68.6619C89.7868 68.4214 90.3427 67.5698 93.0313 66.7341C96.059 65.7919 100.076 65.3779 103.139 65.3779C105.26 65.3779 106.92 65.575 107.48 65.9298C108.962 66.8721 109.609 72.4977 107.578 77.3901C105.852 81.5571 96.7252 81.9749 94.3204 81.1589C93.1614 80.7647 91.6003 78.7107 90.5319 76.1719C89.2901 73.227 88.955 70.2742 89.6764 68.6579V68.6619Z" fill="#EFF2FB"/>
<path d="M105.524 79.5773C106.458 79.0017 107.2 78.2763 107.574 77.3656C109.604 72.4733 108.954 66.8476 107.475 65.9054C106.92 65.5506 105.256 65.3535 103.135 65.3535C100.072 65.3535 96.0547 65.7635 93.0271 66.7097C90.3385 67.5454 89.7787 68.393 89.6722 68.6374C89.5776 68.8503 89.5066 69.0869 89.4475 69.3392C89.8772 69.1381 90.4173 68.9292 91.0835 68.7242C94.1112 67.782 98.1284 67.368 101.192 67.368C103.312 67.368 104.972 67.5651 105.536 67.9199C107.018 68.8621 107.665 74.4917 105.634 79.3801C105.603 79.4511 105.556 79.5102 105.524 79.5773Z" fill="#E4EBF7"/>
<path d="M85.5768 34C64.9785 34 48.2791 50.6956 48.2791 71.2979C48.2791 91.9003 64.9745 108.596 85.5768 108.596C106.179 108.596 122.875 91.9003 122.875 71.2979C122.875 50.6956 106.175 34 85.5768 34ZM85.5768 100.778C69.2953 100.778 56.0966 87.5756 56.0966 71.2979C56.0966 55.0202 69.2953 41.8175 85.5768 41.8175C101.858 41.8175 115.057 55.0163 115.057 71.2979C115.057 87.5795 101.858 100.778 85.5768 100.778Z" fill="white"/>
<path d="M101.351 70.0643C101.351 70.9398 100.637 71.6535 99.7618 71.6535C98.8864 71.6535 98.1726 70.9398 98.1726 70.0643C98.1726 69.1889 98.8864 68.4751 99.7618 68.4751C100.641 68.4751 101.351 69.1849 101.351 70.0643Z" fill="#F49824"/>
<path d="M101.351 76.5922C101.351 77.4676 100.637 78.1814 99.7618 78.1814C98.8864 78.1814 98.1726 77.4676 98.1726 76.5922C98.1726 75.7167 98.8864 75.0029 99.7618 75.0029C100.637 75.0029 101.351 75.7167 101.351 76.5922Z" fill="#F49824"/>
<path d="M104.678 73.3329C104.678 74.2083 103.964 74.9221 103.089 74.9221C102.213 74.9221 101.5 74.2083 101.5 73.3329C101.5 72.4574 102.213 71.7437 103.089 71.7437C103.968 71.7437 104.678 72.4535 104.678 73.3329Z" fill="#F49824"/>
<path d="M98.0276 73.3329C98.0276 74.2083 97.3138 74.9221 96.4383 74.9221C95.5629 74.9221 94.8491 74.2083 94.8491 73.3329C94.8491 72.4574 95.5629 71.7437 96.4383 71.7437C97.3177 71.7437 98.0276 72.4535 98.0276 73.3329Z" fill="#F49824"/>
<path d="M75.4018 72.1067H72.9615V69.6704C72.9615 68.9962 72.4136 68.4482 71.7394 68.4482C71.0653 68.4482 70.5173 68.9962 70.5173 69.6704L70.5607 72.1067H68.0771C67.403 72.1067 66.855 72.6547 66.855 73.3288C66.855 74.0029 67.399 74.5509 68.0771 74.5509L70.5607 74.5075L70.5173 76.9912C70.5173 77.6653 71.0653 78.2133 71.7394 78.2133C72.4136 78.2133 72.9615 77.6653 72.9615 76.9912V74.5075L75.4018 74.5509C76.0759 74.5509 76.6239 74.0069 76.6239 73.3288C76.6239 72.6507 76.0759 72.1067 75.4018 72.1067Z" fill="#F49824"/>
<path d="M111.58 66.9302C111.501 65.4874 110.354 64.896 109.77 64.7935C106.061 63.9459 101.61 63.7055 96.9145 64.08L96.6701 64.0997C93.8041 64.3244 92.2232 64.4466 90.3467 65.3809C89.9091 65.5977 89.4597 65.8461 89.0655 66.0708C88.3559 66.4729 87.3388 66.9145 86.7908 67.0485C86.5661 67.1037 86.3453 67.1549 86.1482 67.2023C85.8604 67.2693 85.3124 67.2693 85.0247 67.2023C84.8275 67.1589 84.6028 67.1037 84.3821 67.0485C83.8341 66.9145 82.813 66.4769 82.1034 66.0708C81.7092 65.8422 81.2559 65.5977 80.8222 65.3809C78.9417 64.4466 77.3648 64.3204 74.4988 64.0997L74.2544 64.08C69.5513 63.7055 65.0965 63.9499 61.4144 64.7935C60.8152 64.9 59.6641 65.4913 59.5892 66.9342C59.5734 67.2259 59.5813 67.7778 59.597 68.2627C59.597 68.5821 59.6089 68.8738 59.6049 69.0354C59.5852 70.0092 59.9085 70.3955 60.1608 70.703C60.2396 70.8016 60.3145 70.8883 60.3697 70.9908C60.488 71.2194 60.5747 71.4993 60.622 71.8266C61.6864 78.97 61.923 79.9476 64.6195 81.5206C65.9086 82.2775 68.5618 82.7821 71.2188 82.7821C73.2925 82.7821 76.2807 82.4786 78.7722 81.0397C82.3952 78.9384 83.7474 71.6925 83.8144 71.3259C83.8144 71.2904 83.9208 70.4231 85.5805 70.4231H85.687C87.2599 70.4231 87.3664 71.2904 87.3782 71.385C87.4334 71.6925 88.7856 78.9424 92.4125 81.0436C94.9 82.4865 97.8962 82.7861 99.9658 82.7861C102.623 82.7861 105.276 82.2815 106.565 81.5246C109.262 79.9476 109.498 78.9778 110.563 71.8305C110.61 71.5033 110.697 71.2194 110.819 70.9947C110.874 70.8922 110.945 70.8055 111.028 70.7069C111.284 70.3994 111.607 70.0131 111.588 69.0394C111.588 68.8777 111.588 68.586 111.596 68.2667C111.603 67.7818 111.611 67.2338 111.596 66.9381L111.58 66.9302ZM79.6711 77.0658C78.3622 79.514 75.2676 80.9726 71.4002 80.9726C69.3817 80.9726 67.3791 80.5469 66.0466 79.8254C63.1333 78.2564 62.7114 74.1131 62.7193 71.7832C62.7193 70.7109 63.0465 69.0275 63.5196 68.2233C64.312 66.879 65.6445 66.0432 69.8233 66.0432C70.7497 66.0432 71.8023 66.0826 73.0481 66.1615C80.1362 66.6227 81.2795 68.2864 81.4806 68.8462C81.4885 68.8738 82.4228 71.9251 79.6711 77.0619V77.0658ZM105.107 79.8215C103.774 80.539 101.771 80.9687 99.7569 80.9687C95.8856 80.9687 92.7909 79.5061 91.4821 77.0619C88.7264 71.9251 89.6568 68.8738 89.6923 68.791C89.8736 68.2903 91.0169 66.6227 98.109 66.1654C99.3548 66.0866 100.407 66.0472 101.334 66.0472C105.517 66.0472 106.845 66.8829 107.637 68.2272C108.115 69.0315 108.434 70.7148 108.438 71.7832C108.446 74.117 108.024 78.2604 105.111 79.8254L105.107 79.8215Z" fill="#3B3C3D"/>
<path d="M66.4329 103.022C66.4329 103.022 70.1583 105.005 65.3093 116C66.8389 115.152 76.1821 108.439 82.7223 108.411" fill="white"/>
<path d="M43.6232 71.4516C43.6232 59.2029 49.7889 48.3971 59.1912 41.9633C58.6432 41.9318 58.0953 41.916 57.5354 41.916C41.2224 41.916 28 55.1384 28 71.4555C28 87.7726 41.2263 100.991 57.5354 100.991C58.0874 100.991 58.6393 100.971 59.1873 100.944C49.7928 94.506 43.6232 83.7002 43.6232 71.4516Z" fill="white"/>
<path d="M39.2986 94.6836C39.2986 94.6836 40.3511 98.1843 37.8044 103.845C39.9687 103.644 47.0333 101.516 53.9323 100.767" fill="white"/>
<defs>
<linearGradient id="paint0_linear_1858_4564" x1="74.5" y1="0" x2="74.5" y2="149" gradientUnits="userSpaceOnUse">
<stop stop-color="#F59A2E"/>
<stop offset="0.25" stop-color="#F4992F"/>
<stop offset="0.5" stop-color="#F39230"/>
<stop offset="0.75" stop-color="#F1852F"/>
<stop offset="0.86" stop-color="#EE752F"/>
<stop offset="0.99" stop-color="#EB5D2F"/>
<stop offset="1" stop-color="#EB5B2F"/>
</linearGradient>
</defs>
</svg>
