<svg width="384" height="384" viewBox="0 0 384 384" fill="none" xmlns="http://www.w3.org/2000/svg">
<g clip-path="url(#clip0_330_466)">
<path d="M192 384C298.039 384 384 298.039 384 192C384 85.9613 298.039 0 192 0C85.9613 0 0 85.9613 0 192C0 298.039 85.9613 384 192 384Z" fill="url(#paint0_linear_330_466)"/>
<path d="M207.531 196.306C204.778 202.849 200.754 208.132 197.767 209.159C191.58 211.262 168.06 210.185 163.599 199.446C158.367 186.837 160.043 172.339 163.864 169.911C165.296 168.996 169.584 168.488 175.05 168.488C182.944 168.488 193.297 169.555 201.1 171.983C208.029 174.137 209.472 176.332 209.746 176.952C211.605 181.117 210.742 188.727 207.531 196.317V196.306Z" fill="#EFF2FB"/>
<path d="M168.631 204.586C163.398 191.987 165.075 177.479 168.885 175.051C170.328 174.136 174.605 173.628 180.081 173.628C187.975 173.628 198.328 174.695 206.131 177.123C207.848 177.662 209.24 178.2 210.348 178.708C210.195 178.058 210.012 177.448 209.758 176.9C209.484 176.28 208.041 174.085 201.112 171.932C193.309 169.493 182.956 168.437 175.062 168.437C169.596 168.437 165.319 168.944 163.876 169.859C160.056 172.287 158.389 186.786 163.612 199.394C164.587 201.741 166.497 203.6 168.895 205.094C168.814 204.921 168.692 204.759 168.621 204.586H168.631Z" fill="#E4EBF7"/>
<path d="M231.112 176.954C231.397 176.334 232.83 174.14 239.759 171.986C247.561 169.558 257.914 168.491 265.808 168.491C271.274 168.491 275.552 168.999 276.995 169.913C280.815 172.342 282.482 186.84 277.248 199.448C272.8 210.187 249.278 211.264 243.081 209.161C240.094 208.145 236.071 202.852 233.317 196.309C230.117 188.719 229.253 181.109 231.112 176.944V176.954Z" fill="#EFF2FB"/>
<path d="M271.955 205.085C274.362 203.602 276.274 201.732 277.238 199.385C282.469 186.777 280.794 172.278 276.983 169.85C275.552 168.936 271.264 168.428 265.798 168.428C257.904 168.428 247.55 169.485 239.748 171.923C232.819 174.077 231.376 176.261 231.102 176.891C230.858 177.44 230.675 178.05 230.522 178.7C231.63 178.181 233.022 177.643 234.739 177.115C242.542 174.687 252.895 173.62 260.79 173.62C266.254 173.62 270.532 174.128 271.985 175.042C275.805 177.47 277.472 191.979 272.238 204.577C272.158 204.76 272.037 204.912 271.955 205.085Z" fill="#E4EBF7"/>
<path d="M220.547 87.6241C167.461 87.6241 124.424 130.652 124.424 183.748C124.424 236.844 167.451 279.872 220.547 279.872C273.643 279.872 316.671 236.844 316.671 183.748C316.671 130.652 273.632 87.6241 220.547 87.6241ZM220.547 259.723C178.587 259.723 144.571 225.698 144.571 183.748C144.571 141.797 178.587 107.771 220.547 107.771C262.507 107.771 296.523 141.787 296.523 183.748C296.523 225.708 262.507 259.723 220.547 259.723Z" fill="white"/>
<path d="M261.2 180.568C261.2 182.825 259.36 184.664 257.104 184.664C254.848 184.664 253.009 182.825 253.009 180.568C253.009 178.312 254.848 176.473 257.104 176.473C259.37 176.473 261.2 178.302 261.2 180.568Z" fill="#F49824"/>
<path d="M261.2 197.392C261.2 199.648 259.36 201.488 257.104 201.488C254.848 201.488 253.009 199.648 253.009 197.392C253.009 195.136 254.848 193.296 257.104 193.296C259.36 193.296 261.2 195.136 261.2 197.392Z" fill="#F49824"/>
<path d="M269.774 188.992C269.774 191.248 267.934 193.088 265.679 193.088C263.421 193.088 261.584 191.248 261.584 188.992C261.584 186.736 263.421 184.896 265.679 184.896C267.944 184.896 269.774 186.726 269.774 188.992Z" fill="#F49824"/>
<path d="M252.635 188.992C252.635 191.248 250.795 193.088 248.539 193.088C246.283 193.088 244.443 191.248 244.443 188.992C244.443 186.736 246.283 184.896 248.539 184.896C250.805 184.896 252.635 186.726 252.635 188.992Z" fill="#F49824"/>
<path d="M194.324 185.832H188.035V179.553C188.035 177.816 186.623 176.403 184.885 176.403C183.148 176.403 181.736 177.816 181.736 179.553L181.848 185.832H175.447C173.71 185.832 172.297 187.244 172.297 188.982C172.297 190.719 173.699 192.131 175.447 192.131L181.848 192.019L181.736 198.42C181.736 200.158 183.148 201.57 184.885 201.57C186.623 201.57 188.035 200.158 188.035 198.42V192.019L194.324 192.131C196.061 192.131 197.474 190.729 197.474 188.982C197.474 187.234 196.061 185.832 194.324 185.832Z" fill="#F49824"/>
<path d="M287.562 172.491C287.358 168.773 284.402 167.249 282.897 166.985C273.338 164.8 261.867 164.181 249.766 165.146L249.136 165.197C241.75 165.776 237.676 166.091 232.84 168.498C231.712 169.057 230.554 169.697 229.538 170.276C227.709 171.313 225.088 172.451 223.676 172.796C223.096 172.938 222.527 173.07 222.019 173.193C221.278 173.365 219.865 173.365 219.124 173.193C218.616 173.081 218.037 172.938 217.468 172.796C216.056 172.451 213.424 171.323 211.595 170.276C210.579 169.687 209.411 169.057 208.293 168.498C203.447 166.091 199.383 165.765 191.997 165.197L191.367 165.146C179.246 164.181 167.765 164.81 158.276 166.985C156.732 167.259 153.765 168.783 153.572 172.502C153.531 173.253 153.552 174.676 153.592 175.925C153.592 176.749 153.623 177.5 153.613 177.917C153.562 180.426 154.395 181.422 155.045 182.214C155.248 182.469 155.441 182.692 155.584 182.956C155.889 183.545 156.112 184.267 156.234 185.11C158.977 203.52 159.587 206.039 166.536 210.093C169.858 212.044 176.696 213.344 183.544 213.344C188.888 213.344 196.589 212.562 203.01 208.854C212.347 203.439 215.832 184.765 216.005 183.82C216.005 183.728 216.279 181.493 220.556 181.493H220.831C224.885 181.493 225.159 183.728 225.189 183.972C225.332 184.765 228.817 203.449 238.164 208.864C244.574 212.583 252.296 213.355 257.63 213.355C264.478 213.355 271.315 212.054 274.637 210.104C281.588 206.039 282.196 203.54 284.941 185.12C285.062 184.277 285.286 183.545 285.601 182.966C285.742 182.702 285.925 182.479 286.139 182.224C286.799 181.432 287.631 180.436 287.582 177.927C287.582 177.51 287.582 176.759 287.603 175.936C287.621 174.686 287.642 173.274 287.603 172.512L287.562 172.491ZM205.327 198.613C201.954 204.922 193.978 208.681 184.011 208.681C178.809 208.681 173.648 207.584 170.214 205.725C162.706 201.681 161.619 191.003 161.639 184.998C161.639 182.235 162.482 177.896 163.701 175.824C165.744 172.359 169.178 170.205 179.947 170.205C182.335 170.205 185.048 170.307 188.258 170.51C206.525 171.699 209.472 175.986 209.99 177.429C210.011 177.5 212.418 185.364 205.327 198.602V198.613ZM270.88 205.714C267.444 207.564 262.282 208.671 257.092 208.671C247.115 208.671 239.139 204.902 235.766 198.602C228.664 185.364 231.062 177.5 231.153 177.287C231.621 175.996 234.567 171.699 252.845 170.52C256.055 170.317 258.767 170.216 261.156 170.216C271.936 170.216 275.359 172.369 277.4 175.834C278.632 177.907 279.454 182.245 279.464 184.998C279.485 191.013 278.397 201.691 270.89 205.725L270.88 205.714Z" fill="#3B3C3D"/>
<path d="M171.21 265.506C171.21 265.506 180.811 270.617 168.314 298.953C172.256 296.768 196.335 279.467 213.19 279.395" fill="white"/>
<path d="M112.425 184.144C112.425 152.577 128.315 124.728 152.547 108.147C151.134 108.066 149.722 108.025 148.279 108.025C106.238 108.025 72.1611 142.102 72.1611 184.154C72.1611 226.206 106.248 260.272 148.279 260.272C149.702 260.272 151.124 260.221 152.536 260.151C128.325 243.559 112.425 215.711 112.425 184.144Z" fill="white"/>
<path d="M101.28 244.017C101.28 244.017 103.992 253.039 97.4288 267.627C103.007 267.109 121.213 261.625 138.993 259.695" fill="white"/>
</g>
<defs>
<linearGradient id="paint0_linear_330_466" x1="192" y1="0" x2="192" y2="384" gradientUnits="userSpaceOnUse">
<stop stop-color="#F59A2E"/>
<stop offset="0.25" stop-color="#F4992F"/>
<stop offset="0.5" stop-color="#F39230"/>
<stop offset="0.75" stop-color="#F1852F"/>
<stop offset="0.86" stop-color="#EE752F"/>
<stop offset="0.99" stop-color="#EB5D2F"/>
<stop offset="1" stop-color="#EB5B2F"/>
</linearGradient>
<clipPath id="clip0_330_466">
<rect width="384" height="384" fill="white"/>
</clipPath>
</defs>
</svg>
