<svg width="385" height="503" viewBox="0 0 385 503" fill="none" xmlns="http://www.w3.org/2000/svg">
<path d="M355.566 265.221L370.412 253.308L350.191 218.029L377.578 201.077L343.025 194.891L332.787 162.132L314.102 138.994L287.995 121.354L289.559 122.412L277.697 116.452L257.827 109.928L238.254 108.445H201.183L177.162 112.004L153.14 122.412C153.14 122.412 138.709 133.97 129.118 144.626C105.413 170.961 90.1576 234.695 86.8146 236.356L63.2668 292.94L4.14139 311.496L59.4275 452.156L187.149 493.162C247.627 493.336 275.717 483.941 313.846 447.574L336.37 426.04L356.59 386.866L369.132 334.863L364.269 330.052L362.989 298.668L355.566 265.221Z" fill="white"/>
<path d="M265.73 481.709C174.315 522.208 90.4634 485.724 81.2272 477.049C80.987 476.823 80.8092 476.681 80.519 476.525C74.6198 473.353 4.4007 433.66 4.4007 341.278C4.4007 314.377 74.0218 398.279 80.4399 406.07C80.7818 406.485 80.9449 406.948 81.0089 407.482C90.842 489.56 204.605 493.915 265.73 481.709Z" fill="#D8E6E8"/>
<path d="M312.058 449.178C258.173 394.461 226.324 361.211 206.611 358.015L204.444 342.497C250.313 380.578 273.892 403.027 313.296 447.516L312.058 449.178Z" fill="#D8E6E8"/>
<path d="M125.046 238.918C117.147 232.209 95.4386 221.644 103.199 196.496L85.0263 235.835C102.038 236.655 109.458 237.68 124.24 240.416C125.236 240.6 125.819 239.575 125.046 238.918Z" fill="#D8E6E8"/>
<path d="M309.462 262.552C309.933 249.767 310.55 252.511 310.843 254.842C310.967 255.838 311.557 256.709 312.482 257.099C317.994 259.421 337.901 267.043 353.534 263.231C354.901 262.897 356.242 263.557 356.469 264.945C356.704 266.388 356.958 268.618 357.112 271.974C357.852 288.115 308.821 279.906 309.462 262.552Z" fill="#D8E6E8"/>
<path d="M342.587 194.751C338.454 152.551 302.498 121.881 259.305 110.346M85.9277 235.762C85.9277 235.762 98.44 211.352 102.956 194.751C108.291 175.138 116.861 159.079 127.652 146.258" stroke="black" stroke-width="1.6706" stroke-linecap="round"/>
<path d="M134.537 138.805C143.847 129.611 154.443 122.443 165.807 117.14M172.879 114.115C174.116 113.633 175.36 113.171 176.611 112.73" stroke="black" stroke-width="1.6706" stroke-linecap="round"/>
<path d="M144.44 301.902C114.752 287.615 97.9447 280.79 67.6591 270.866C60.8479 288.324 49.7485 296.511 21.8381 306.147C68.5706 300.857 95.2254 299.316 144.44 301.902Z" fill="#D8E6E8"/>
<path d="M67.6628 271.509C66.8453 273.171 66.0226 274.744 65.186 276.238M21.8418 306.147C33.7071 302.62 42.3113 299.165 49.0867 294.541M53.4212 290.629L54.35 289.798" stroke="black" stroke-width="1.6706" stroke-linecap="round"/>
<path d="M4.19191 335.52C4.19191 369.965 12.2047 398.801 25.8014 422.253M315.032 447.192C259.749 505.483 155.841 518.285 83.4499 478.119M74.7811 473.24L73.2331 472.131" stroke="black" stroke-width="1.6706" stroke-linecap="round"/>
<path d="M355.592 264.027C358.944 275.508 361.259 284.746 362.776 293.677C363.949 300.582 364.646 307.304 364.977 314.737C365.19 319.533 365.251 324.626 365.19 330.254" stroke="black" stroke-width="1.6706" stroke-linecap="round"/>
<path d="M113.938 286.354C98.4733 277.353 75.0821 258.461 91.4914 237.891C81.5842 231.794 68.2713 253.686 67.0329 271.42C67.5946 269.219 96.9615 279.523 113.938 286.354C121.181 290.57 126.685 292.616 125.548 291.649C124.6 290.843 120.08 288.826 113.938 286.354Z" fill="#DBBB97"/>
<path d="M172.917 310.215C172.917 310.215 173.454 310.272 174.448 310.504C181.266 312.442 197.497 323.732 203.567 340.142L255.89 385.864C255.89 385.864 228.869 357.699 218.738 347.624C210.378 339.311 201.09 325.779 191.802 319.082C183.593 313.163 177.23 311.153 174.448 310.504C173.865 310.338 173.35 310.241 172.917 310.215Z" fill="#DBBB97"/>
<path d="M284.69 416.344C314.697 438.353 328.445 435.464 345.681 411.911L322.154 448.89C321.199 450.391 319.1 450.624 317.839 449.368L284.69 416.344Z" fill="#DBBB97"/>
<path d="M370.818 346.72L367.672 346.049C365.302 356.015 362.875 365.049 360.228 373.504C357.919 380.879 355.443 387.813 352.691 394.542C348.952 403.685 344.704 412.448 339.677 421.421L344.849 424.193C346.044 424.833 347.528 424.522 348.345 423.441C354.685 415.048 357.383 409.317 359.46 400.025C359.742 398.764 359.089 397.485 357.916 396.945L352.691 394.542C355.443 387.813 357.919 380.879 360.228 373.504L361.157 373.947L364.206 374.992C365.343 375.382 366.609 375 367.306 374.021C373.451 365.398 374.674 358.944 372.947 348.911C372.759 347.814 371.907 346.953 370.818 346.72Z" fill="#F6FFCA"/>
<path d="M146.018 302.544C122.507 289.939 97.3052 279.934 68.3764 271.936C66.9368 271.538 66.0549 270.079 66.4085 268.628C69.3279 256.65 72.8105 249.189 83.4651 237.32C84.0343 236.685 84.8696 236.351 85.7195 236.413C93.7502 237.001 101.531 237.691 109.142 238.514M203.261 340.45C238.542 368.257 273.903 403.961 317.621 449.972C318.836 451.25 320.926 451.099 321.925 449.646C328.808 439.631 334.635 430.421 339.677 421.421M367.672 346.049C368.448 342.781 369.219 339.413 369.989 335.932C370.26 334.707 369.663 333.447 368.551 332.866C308.871 301.712 264.166 280.56 225.242 266.086M367.672 346.049L370.818 346.72C371.907 346.953 372.759 347.814 372.947 348.912C374.674 358.944 373.451 365.398 367.306 374.021C366.609 375 365.343 375.382 364.206 374.992L361.157 373.947L360.228 373.504M367.672 346.049C365.302 356.015 362.875 365.049 360.228 373.504M352.691 394.542L357.916 396.945C359.089 397.485 359.742 398.764 359.46 400.025C357.383 409.317 354.685 415.048 348.345 423.441C347.528 424.522 346.044 424.833 344.849 424.193L339.677 421.421M352.691 394.542C348.952 403.685 344.704 412.448 339.677 421.421M352.691 394.542C355.443 387.813 357.919 380.879 360.228 373.504M116.882 239.641L118.43 239.918" stroke="black" stroke-width="1.6706" stroke-linecap="round"/>
<path d="M345.371 361.478C337.321 359.538 333.605 356.213 333.605 347.9C335.259 340.49 339.535 334.121 345.797 335.241" stroke="#F6FFCA" stroke-width="1.6706"/>
<path d="M324.997 406.495C317.416 404.037 314.148 400.526 314.936 392.394C317.234 385.262 321.962 379.329 327.895 380.86" stroke="#F6FFCA" stroke-width="1.6706"/>
<path d="M304.423 344.436C296.925 342.612 293.437 339.441 293.421 331.527C293.421 331.353 293.441 331.174 293.481 331.003C295.135 323.876 299.19 317.799 305.02 318.841" stroke="#F6FFCA" stroke-width="1.39217" stroke-linecap="round"/>
<path d="M339.178 362.356C347.537 363.973 353.779 357.547 354.968 350.395C356.034 343.979 354.968 338.48 346.299 335.709" stroke="#DBBB97" stroke-width="1.6706" stroke-linecap="round"/>
<path d="M300.476 345.406C306.978 347.9 315.33 341.398 316.519 334.247C317.585 327.831 315.337 320.19 307.597 319.082" stroke="#DBBB97" stroke-width="1.6706" stroke-linecap="round"/>
<path d="M319.981 406.923C326.483 409.417 335.2 401.882 336.389 394.731C337.455 388.315 334.222 380.044 327.72 380.598" stroke="#DBBB97" stroke-width="1.6706" stroke-linecap="round"/>
<path d="M330.979 346.855C329.19 354.868 333.261 362.086 339.71 363.239C346.159 364.393 353.016 359.129 354.805 351.116C356.594 343.103 352.523 335.885 346.074 334.731C339.625 333.578 332.768 338.842 330.979 346.855Z" stroke="black" stroke-width="1.6706"/>
<path d="M290.056 328.872C287.513 336.657 291.289 344.343 298.265 346.168C305.241 347.993 313.047 343.336 315.589 335.551C318.131 327.767 314.356 320.081 307.38 318.256C300.403 316.431 292.598 321.087 290.056 328.872Z" stroke="black" stroke-width="1.6706"/>
<path d="M312.54 389.571C309.014 397.135 311.438 404.921 317.486 407.179C323.533 409.437 331.421 405.501 334.946 397.936C338.472 390.372 336.048 382.586 330 380.328C323.953 378.07 316.065 382.006 312.54 389.571Z" stroke="black" stroke-width="1.6706"/>
<path d="M219.358 264.028L216.261 263.197" stroke="black" stroke-width="1.6706" stroke-linecap="round"/>
<path d="M53.4215 362.033C116.679 445.827 172.949 407.842 191.534 391.004C193.576 389.153 196.07 390.627 194.744 393.044C190.59 400.617 181.223 412.321 160.234 424.47C110.388 447.192 36.0837 418.65 21.5325 370.712L16.8884 352.409C16.8884 352.409 36.3934 365.081 53.4215 362.033Z" fill="#D8E6E8"/>
<path d="M38.2459 347.898C59.916 353.148 77.0743 339.022 82.7108 333.582C83.1504 333.158 83.9456 333.658 83.7326 334.231C77.4348 351.162 69.5796 356.884 51.7817 361.693C51.6357 361.732 51.4798 361.761 51.3294 361.775C13.8523 365.362 -6.00822 329.024 3.26091 314.091C3.26091 314.091 10.6914 341.222 38.2459 347.898Z" fill="#D8E6E8"/>
<path d="M112.963 359.524C125.156 360.307 132.71 351.199 135.02 347.919C135.192 347.675 135.631 347.857 135.586 348.155C134.148 357.613 130.645 361.334 121.776 365.459C121.642 365.521 121.496 365.575 121.351 365.614C103.207 370.458 89.3332 355.839 90.2159 346.857C90.2861 346.142 91.2213 346.067 91.6306 346.68C94.0519 350.309 100.934 358.751 112.963 359.524Z" fill="#D8E6E8"/>
<path d="M207.598 357.411C198.736 305.069 163.226 289.984 8.66123 307.7C5.26464 308.09 2.29377 310.541 1.77816 313.921C-4.97096 358.161 54.7019 379.577 78.494 345.772M21.5273 370.711C36.0786 418.65 110.383 447.192 160.229 424.469M133.603 354.64C126.792 370.711 100.166 370.711 92.4261 354.64M166.111 421.144L167.969 420.036M80.6612 341.339L81.2804 339.399M134.842 350.206V349.929M172.613 416.988L173.232 416.433" stroke="black" stroke-width="1.6706" stroke-linecap="round"/>
<path d="M377.209 205.083L353.47 217.99C352.432 218.555 351.238 218.778 350.069 218.604C340.09 217.121 335.291 215.06 333.71 211.792C333.638 211.643 333.559 211.496 333.47 211.357C332.322 209.562 332.244 208.511 332.843 206.936C332.932 206.702 333.103 206.508 333.318 206.38C333.687 206.16 334.145 206.158 334.521 206.364C336.165 207.262 340.828 209.648 344.442 209.903C349.621 210.268 373.247 203.252 375.798 202.488C375.956 202.441 376.103 202.407 376.265 202.378C377.885 202.094 378.654 204.298 377.209 205.083Z" fill="#FFEACA"/>
<path d="M320.914 223.845C320.605 225.231 312.386 242.965 311.007 254.881C309.469 268.166 336.555 279.122 351.874 268.182C353.727 266.858 354.875 264.883 355.548 262.64C355.548 262.64 358.254 257.053 356.347 257.563C325.248 265.876 314.165 254.049 320.914 223.845Z" fill="#99E4AA"/>
<path d="M355.66 261.032C356.392 256.52 356.589 253.089 354.704 248.723C354.482 248.21 354.978 247.65 355.504 247.838C355.558 247.857 355.607 247.894 355.643 247.938C363.893 258.154 368.009 253.855 370.583 255.414C371.756 256.125 371.137 257.824 369.974 258.55L362.205 263.396C361.923 263.572 361.612 263.696 361.286 263.762L358.959 264.236C357.039 264.626 355.347 262.966 355.66 261.032Z" fill="#99E4AA"/>
<path d="M305.415 159.866C309.49 168.683 311.209 175.518 312.196 184.497C312.664 188.753 309.361 192.442 305.085 192.667C300.72 192.897 297.103 189.433 296.837 185.07C296.43 178.398 295.387 172.873 292.794 166.218C291.199 162.123 293.304 157.401 297.553 156.277C300.709 155.443 304.046 156.903 305.415 159.866Z" fill="black"/>
<path d="M351.873 218.86L379.894 203.624C381.537 202.731 381.102 200.262 379.253 199.984L345.354 194.891C343.612 194.629 341.841 195.201 340.62 196.471C340.23 196.877 339.853 197.276 339.489 197.667M351.873 218.86C340.42 217.326 334.127 215.249 332.575 211.655M351.873 218.86C346.535 222.982 374.715 247.612 370.139 257.377C366.114 265.967 355.547 262.642 355.547 262.642M333.606 206.39L333.916 205.836M320.913 223.848C320.603 225.233 312.384 242.967 311.005 254.883C309.468 268.168 336.553 279.125 351.873 268.184C353.726 266.861 354.874 264.885 355.547 262.642M355.547 262.642C356.356 259.943 356.479 256.857 356.315 254.052M354.659 249.064L354.35 248.233M297.553 156.277V156.277C300.709 155.443 304.046 156.903 305.415 159.866C309.49 168.683 311.209 175.518 312.196 184.497C312.664 188.753 309.361 192.442 305.085 192.667V192.667C300.72 192.897 297.103 189.433 296.837 185.07C296.43 178.398 295.387 172.873 292.794 166.218C291.199 162.123 293.304 157.401 297.553 156.277Z" stroke="black" stroke-width="1.6706" stroke-linecap="round"/>
<path d="M298.595 158.407L299.77 158.302C300.595 158.228 301.35 158.766 301.549 159.569C301.799 160.578 301.082 161.569 300.045 161.647L298.868 161.735C297.9 161.807 297.074 161.041 297.074 160.07C297.074 159.205 297.734 158.484 298.595 158.407Z" fill="white" stroke="white" stroke-width="1.11374" stroke-linecap="round"/>
<path d="M154.574 128.263L119.965 53.6359C119.899 53.4937 119.848 53.3452 119.812 53.1926C119.179 50.5117 122.914 49.158 124.146 51.6215L125.643 54.614C125.785 54.8974 125.87 55.1919 125.914 55.5056C127.219 64.8021 139.533 89.3371 139.643 90.0216C139.754 90.7179 143.835 94.7874 144.554 94.3149C145.076 93.9724 145.117 91.9589 145.064 90.7209C145.053 90.4834 145.071 90.2475 145.108 90.0127C145.91 84.9643 142.263 76.8584 139.679 72.2349C139.254 71.4731 139.681 70.4979 140.401 70.0048C140.664 69.825 140.903 69.6219 141.119 69.4004C142.025 68.4749 146.469 67.4338 147.541 68.1602C147.794 66.8779 149.579 66.4917 150.518 67.4014C151.016 67.8838 151.556 68.3376 152.119 68.7115C153.555 69.6652 155.413 71.6255 155.579 73.3413C155.872 76.3577 157.044 80.3406 160.197 83.9758C165.016 89.5311 171.146 89.8363 173.61 89.2945C176.043 88.7941 181.105 86.1413 181.887 79.5333C182.425 74.9882 181.136 71.5981 179.747 69.5154C179.112 68.5637 179.443 67.0249 180.532 66.6759C180.366 66.3691 180.199 66.073 180.031 65.7885C179.114 64.2273 179.708 62.0742 181.203 61.0531C182.239 60.3462 183.097 59.5648 183.804 58.7605C185.422 56.9195 190.217 55.5541 192.501 56.4427C194.03 57.0375 195.591 57.4192 196.972 57.6469C198.538 57.9051 199.746 59.324 199.641 60.9082C198.863 72.6492 203.578 78.8436 206.234 80.5425C208.113 81.698 209.803 82.61 211.34 83.3134C215.587 81.1327 223.783 72.6306 221.386 62.7533C219.516 55.0439 216.25 50.7706 214.006 48.4485C213.116 47.5284 212.905 46.1303 213.585 45.0469L218.754 36.8229L223.678 28.9873C224.46 27.7428 226.108 27.3767 227.344 28.173L228.613 28.9914C228.239 29.5923 228.227 30.3484 228.574 30.9657C230.967 35.2236 234.493 42.2598 236.67 48.7105C237.065 49.8809 236.605 51.2859 236.04 52.3845C235.204 54.0122 234.239 56.9378 233.616 61.7682C233.596 61.9246 233.589 62.0846 233.601 62.242C233.738 64.0816 234.387 67.6987 236.045 70.4162C236.512 71.1807 236.724 72.107 236.409 72.9454C235.059 76.5386 232.982 79.4503 229.888 81.1683C224.122 84.371 220.378 87.4496 211.34 83.3134C209.803 82.61 208.113 81.698 206.234 80.5425C203.578 78.8436 198.863 72.6492 199.641 60.9082C199.746 59.324 198.538 57.9051 196.972 57.6469C195.591 57.4192 194.03 57.0375 192.501 56.4427C190.217 55.5541 185.422 56.9195 183.804 58.7605C183.097 59.5648 182.239 60.3462 181.203 61.0531C179.708 62.0742 179.114 64.2273 180.031 65.7885C180.199 66.073 180.366 66.3691 180.532 66.6759C182.728 70.7306 184.714 76.6658 183.378 82.6726C181.536 90.9529 175.254 94.4807 172.136 95.2815C171.991 95.3189 171.851 95.365 171.708 95.4129C169.546 96.1411 164.016 95.7169 157.372 88.6208C157.246 88.4865 157.134 88.3382 157.042 88.1788C155.37 85.2791 152.556 78.8848 152.331 72.703C152.278 71.2561 151.228 69.9586 149.886 69.4147C149.142 69.1131 148.341 68.7024 147.541 68.1602C146.469 67.4338 142.025 68.4749 141.119 69.4004C140.903 69.6219 140.664 69.825 140.401 70.0048C139.681 70.4979 139.254 71.4731 139.679 72.2349C142.263 76.8584 145.91 84.9643 145.108 90.0127C145.071 90.2475 145.053 90.4834 145.064 90.7209C145.117 91.9589 145.076 93.9724 144.554 94.3149C143.835 94.7874 139.754 90.7179 139.643 90.0216C139.533 89.3371 127.219 64.8021 125.914 55.5056C125.87 55.1919 125.785 54.8974 125.643 54.614L124.146 51.6215C122.914 49.158 119.179 50.5117 119.812 53.1926C119.848 53.3452 119.899 53.4937 119.965 53.6359L154.574 128.263C154.901 128.969 155.514 129.5 156.275 129.659C166.508 131.786 191.36 129.891 216.013 124.899C229.982 122.613 258.731 116.863 265.96 111.578C266.464 111.21 266.736 110.629 266.804 110.009L273.215 51.7095C273.241 51.4741 273.234 51.2375 273.199 51.0034C272.915 49.1087 272.546 45.7105 272.836 43.9501C272.521 45.2244 272 47.033 271.444 48.2374L271.401 48.3307C271.027 49.1416 270.613 50.0379 270.594 50.9234C270.428 58.8597 269.395 72.7446 266.299 75.8462C266.213 75.9331 266.125 76.0115 266.035 76.081C264.012 78.0702 259.191 79.9039 255.621 71.9817C255.377 71.4393 255.353 70.8282 255.507 70.2538C256.417 66.8728 257.591 61.013 257.188 56.8346C257.06 55.5102 257.653 54.1185 258.651 53.2392C260.09 51.972 261.668 49.9202 262.177 47.0897C262.118 48.1186 262.571 50.3761 264.566 52.4391C265.417 53.3183 265.839 54.5868 265.478 55.7554C264.564 58.7105 263.543 63.3185 263.931 67.2444C264.422 72.2196 265.498 74.9586 265.974 75.7061C266.139 75.9092 266.26 75.8841 266.299 75.8462C269.395 72.7446 270.428 58.8597 270.594 50.9234C270.613 50.0379 271.027 49.1416 271.401 48.3307L271.444 48.2374C272 47.033 272.521 45.2244 272.836 43.9501C272.87 43.7457 272.913 43.5633 272.965 43.4079C272.928 43.5735 272.884 43.7556 272.836 43.9501C272.546 45.7105 272.915 49.1087 273.199 51.0034C273.234 51.2375 273.241 51.4741 273.215 51.7095L266.804 110.009C266.736 110.629 266.464 111.21 265.96 111.578C258.731 116.863 229.982 122.613 216.013 124.899C191.36 129.891 166.508 131.786 156.275 129.659C155.514 129.5 154.901 128.969 154.574 128.263Z" fill="#F8DD6C"/>
<path d="M255.26 71.1356C258.859 80.029 263.943 78.1381 266.035 76.081C266.125 76.0115 266.213 75.9331 266.299 75.8462M255.26 71.1356C253.663 67.2809 251.324 57.2422 254.743 47.9257C256.013 43.9991 259.009 35.0816 261.423 28.9396C261.74 28.1318 261.656 27.2252 261.178 26.5003C255.605 18.0329 245.656 3.16052 245.121 3.3513C244.581 3.54394 234.257 19.9393 228.613 28.9914M255.26 71.1356C256.183 67.986 257.629 61.4046 257.188 56.8346C257.06 55.5102 257.653 54.1185 258.651 53.2392C260.09 51.972 261.668 49.9202 262.177 47.0897C262.118 48.1186 262.571 50.3761 264.566 52.4391C265.417 53.3183 265.839 54.5868 265.478 55.7554C264.564 58.7104 263.543 63.3185 263.931 67.2444C264.422 72.2196 265.498 74.9586 265.974 75.7061C266.139 75.9092 266.26 75.8841 266.299 75.8462M147.541 68.1602C148.341 68.7024 149.142 69.1131 149.886 69.4147C151.228 69.9586 152.278 71.2561 152.331 72.703C152.556 78.8848 155.37 85.2791 157.042 88.1788C157.134 88.3382 157.246 88.4865 157.372 88.6208C164.016 95.7169 169.546 96.1411 171.708 95.4129C171.851 95.365 171.991 95.3189 172.136 95.2815C175.254 94.4807 181.536 90.9529 183.378 82.6726C184.714 76.6658 182.728 70.7306 180.532 66.6759M147.541 68.1602V68.1602C146.469 67.4338 142.025 68.4749 141.119 69.4003C140.903 69.6219 140.664 69.825 140.401 70.0048C139.681 70.4979 139.254 71.4731 139.679 72.2349C142.263 76.8584 145.91 84.9642 145.108 90.0127C145.071 90.2475 145.053 90.4834 145.064 90.7209C145.117 91.9589 145.076 93.9724 144.554 94.3149C143.835 94.7874 139.754 90.7179 139.643 90.0216C139.533 89.3371 127.219 64.8021 125.914 55.5056C125.87 55.1919 125.785 54.8974 125.643 54.614L124.146 51.6215C122.914 49.1579 119.179 50.5117 119.812 53.1926V53.1926C119.848 53.3452 119.899 53.4937 119.965 53.6359L154.574 128.263C154.901 128.969 155.514 129.5 156.275 129.659C166.508 131.786 191.36 129.89 216.013 124.899C229.982 122.613 258.731 116.863 265.96 111.578C266.464 111.21 266.736 110.629 266.804 110.009L273.215 51.7095C273.241 51.4741 273.234 51.2375 273.199 51.0034C272.881 48.8886 272.459 44.9008 272.965 43.4079C272.68 44.6581 272.085 46.8492 271.444 48.2374C271.059 49.0726 270.613 50.0038 270.594 50.9233C270.428 58.8597 269.395 72.7446 266.299 75.8462M147.541 68.1602V68.1602C147.794 66.8779 149.579 66.4916 150.518 67.4014C151.016 67.8838 151.556 68.3376 152.119 68.7115C153.555 69.6652 155.413 71.6255 155.579 73.3413C155.872 76.3577 157.044 80.3406 160.197 83.9758C165.016 89.5311 171.146 89.8363 173.61 89.2945C176.043 88.7941 181.105 86.1413 181.887 79.5333C182.425 74.9882 181.136 71.5981 179.747 69.5154C179.112 68.5637 179.443 67.0249 180.532 66.6759V66.6759M180.532 66.6759C180.366 66.3691 180.199 66.073 180.031 65.7885C179.114 64.2273 179.708 62.0742 181.203 61.0531C182.239 60.3462 183.097 59.5648 183.804 58.7605C185.422 56.9195 190.217 55.5541 192.501 56.4427C194.03 57.0375 195.591 57.4192 196.972 57.6469C198.538 57.9051 199.746 59.324 199.641 60.9082C198.863 72.6492 203.578 78.8436 206.234 80.5425C208.113 81.698 209.803 82.61 211.34 83.3134M211.34 83.3134C220.378 87.4496 224.122 84.371 229.888 81.1683C233.363 79.2385 235.556 75.8027 236.876 71.5866M211.34 83.3134C215.587 81.1327 223.783 72.6306 221.387 62.7533C219.516 55.0439 216.25 50.7706 214.006 48.4485C213.116 47.5284 212.905 46.1303 213.585 45.0469L218.754 36.8228L223.678 28.9873C224.46 27.7428 226.108 27.3767 227.344 28.173L228.613 28.9914M228.613 28.9914V28.9914C228.239 29.5923 228.227 30.3484 228.574 30.9657C231.219 35.6717 235.248 43.7716 237.309 50.7238M237.309 50.7238C238.131 53.4955 238.64 56.0847 238.624 58.2038C238.588 62.9525 238.119 67.6156 236.876 71.5866M237.309 50.7238C236.488 51.1818 234.613 54.0324 233.616 61.7681C233.596 61.9246 233.589 62.0846 233.601 62.242C233.759 64.362 234.597 68.8427 236.876 71.5866" stroke="black" stroke-width="1.58777"/>
<path d="M154.574 128.263L119.965 53.6359C119.899 53.4937 119.848 53.3452 119.812 53.1926C119.179 50.5117 122.914 49.158 124.146 51.6215L125.643 54.614C125.785 54.8974 125.87 55.1919 125.914 55.5056C127.219 64.8021 139.533 89.3371 139.643 90.0216C139.754 90.7179 143.835 94.7874 144.554 94.3149C145.076 93.9724 145.117 91.9589 145.064 90.7209C145.053 90.4834 145.071 90.2475 145.108 90.0127C145.91 84.9643 142.263 76.8584 139.679 72.2349C139.254 71.4731 139.681 70.4979 140.401 70.0048C140.664 69.825 140.903 69.6219 141.119 69.4004C142.025 68.4749 146.469 67.4338 147.541 68.1602C148.341 68.7024 149.142 69.1131 149.886 69.4147C151.228 69.9586 152.278 71.2561 152.331 72.703C152.556 78.8848 155.37 85.2791 157.042 88.1788C157.134 88.3382 157.246 88.4865 157.372 88.6208C164.016 95.7169 169.546 96.1411 171.708 95.4129C171.851 95.365 171.991 95.3189 172.136 95.2815C175.254 94.4807 181.536 90.9529 183.378 82.6726C184.714 76.6658 182.728 70.7306 180.532 66.6759C180.366 66.3691 180.199 66.073 180.031 65.7885C179.114 64.2273 179.708 62.0742 181.203 61.0531C182.239 60.3462 183.097 59.5648 183.804 58.7605C185.422 56.9195 190.217 55.5541 192.501 56.4427C194.03 57.0375 195.591 57.4192 196.972 57.6469C198.538 57.9051 199.746 59.324 199.641 60.9082C198.863 72.6492 203.578 78.8436 206.234 80.5425C208.113 81.698 209.803 82.61 211.34 83.3134C220.378 87.4496 224.122 84.371 229.888 81.1683C233.363 79.2385 235.556 75.8027 236.876 71.5866C238.119 67.6156 238.588 62.9525 238.624 58.2038C238.64 56.0847 238.131 53.4955 237.309 50.7238C235.248 43.7716 231.219 35.6717 228.574 30.9657C228.227 30.3484 228.239 29.5923 228.613 28.9914C234.257 19.9393 244.581 3.54394 245.121 3.3513C245.656 3.16052 255.605 18.0329 261.178 26.5003C261.656 27.2252 261.74 28.1318 261.423 28.9396C259.009 35.0816 256.013 43.9991 254.743 47.9258C251.324 57.2422 253.663 67.2809 255.26 71.1356C258.859 80.029 263.943 78.1381 266.035 76.081C266.125 76.0115 266.213 75.9331 266.299 75.8462C269.395 72.7446 270.428 58.8597 270.594 50.9234C270.613 50.0379 271.027 49.1416 271.401 48.3307L271.444 48.2374C272 47.033 272.521 45.2244 272.836 43.9501C272.87 43.7457 272.913 43.5633 272.965 43.4079C272.928 43.5735 272.884 43.7556 272.836 43.9501C272.546 45.7105 272.915 49.1087 273.199 51.0034C273.234 51.2375 273.241 51.4741 273.215 51.7095L266.804 110.009C266.736 110.629 266.464 111.21 265.96 111.578C258.731 116.863 229.982 122.613 216.013 124.899C191.36 129.891 166.508 131.786 156.275 129.659C155.514 129.5 154.901 128.969 154.574 128.263Z" fill="white"/>
<path d="M215.999 124.914C198.994 128.356 181.895 130.326 169.564 130.519C166.624 130.565 166.669 128.257 169.592 127.936C235.435 120.702 265.127 107.28 273.24 51.3692L266.79 110.024C266.722 110.643 266.45 111.224 265.947 111.592C258.718 116.878 229.969 122.628 215.999 124.914Z" fill="#F6E28B"/>
</svg>
